<?xml version="1.0" encoding="UTF-8"?>
<svg width="98px" height="80px" viewBox="0 0 98 80" version="1.1" xmlns="http://www.w3.org/2000/svg" xmlns:xlink="http://www.w3.org/1999/xlink">
    <title>noun-coins-5865767</title>
    <g id="Page-1" stroke="none" stroke-width="1" fill="none" fill-rule="evenodd">
        <g id="noun-coins-5865767" transform="translate(0.684439, 0.919495)" fill="#000000" fill-rule="nonzero">
            <path d="M52.3065611,25.7325055 C51.3165611,24.0175055 52.4545611,21.6505055 55.7865611,18.4965055 C58.5615611,15.8705055 62.5785611,12.9865055 67.0995611,10.3755055 L67.0995611,10.3755055 C71.6195611,7.76750548 76.1255611,5.73150548 79.7865611,4.64150548 C84.1825611,3.33250548 86.8005611,3.52850548 87.7915611,5.24050548 C88.7835611,6.95750548 87.6445611,9.32450548 84.3125611,12.4785055 C81.5375611,15.1045055 77.5195611,17.9885055 72.9995611,20.5995055 C68.4815611,23.2085055 63.9755611,25.2455055 60.3095611,26.3365055 C58.4015611,26.9045055 56.8285611,27.1885055 55.5785611,27.1885055 C53.9475611,27.1885055 52.8655611,26.7035055 52.3065611,25.7325055 Z M48.0415611,28.1965055 C44.8225611,22.6205055 54.4245611,13.0625055 65.0935611,6.90150548 C70.7925611,3.61150548 76.6265611,1.30650548 81.5225611,0.409505477 C86.9445611,-0.583494523 90.5885611,0.237505477 92.0585611,2.78450548 C92.0585611,2.78550548 92.0595611,2.78550548 92.0595611,2.78650548 C93.3715611,5.06050548 94.6835611,7.33450548 95.9995611,9.61350548 C97.4695611,12.1575055 96.3595611,15.7215055 92.7875611,19.9205055 C89.5635611,23.7115055 84.6475611,27.6125055 78.9475611,30.9035055 C72.0055611,34.9095055 64.0425611,37.8065055 58.4405611,37.8075055 C55.4335611,37.8075055 53.1075611,36.9735055 51.9835611,35.0275055 C51.1845611,33.6385055 50.3845611,32.2545055 49.5845611,30.8705055 C49.0705611,29.9795055 48.5555611,29.0885055 48.0415611,28.1965055 Z M75.0065611,24.0745055 C69.3055611,27.3645055 63.4705611,29.6695055 58.5745611,30.5675055 C57.0785611,30.8415055 55.7175611,30.9775055 54.5005611,30.9775055 C53.8375611,30.9775055 53.2195611,30.9345055 52.6435611,30.8545055 C53.1915611,31.8025055 53.7395611,32.7515055 54.2865611,33.7015055 C54.8385611,34.6565055 56.2905611,35.1415055 58.3805611,35.1425055 L57.5675611,33.7305055 L59.8695611,32.4035055 L61.3035611,34.8905055 C62.7655611,34.6615055 64.3985611,34.2745055 66.1565611,33.7265055 L65.0705611,31.8425055 L67.3725611,30.5155055 L68.7155611,32.8455055 C70.1405611,32.3105055 71.6245611,31.6815055 73.1475611,30.9565055 L71.9765611,28.9285055 L74.2775611,27.5995055 L75.5265611,29.7615055 C76.2195611,29.3945055 76.9185611,29.0085055 77.6215611,28.6025055 C78.3175611,28.2005055 79.0015611,27.7895055 79.6705611,27.3705055 L78.4205611,25.2055055 L80.7215611,23.8765055 L81.8955611,25.9105055 C83.2655611,24.9715055 84.5595611,24.0055055 85.7565611,23.0255055 L84.4015611,20.6825055 L86.7015611,19.3525055 L87.8005611,21.2525055 C88.9065611,20.2345055 89.9045611,19.2105055 90.7655611,18.1975055 C90.9275611,18.0075055 91.0835611,17.8185055 91.2335611,17.6315055 L89.7895611,15.1245055 L92.0915611,13.7975055 L92.9065611,15.2125055 C93.9445611,13.3915055 94.2435611,11.8815055 93.7005611,10.9415055 C93.1525611,9.99250548 92.6065611,9.04650548 92.0595611,8.09850548 C89.9405611,13.3325055 82.7555611,19.5985055 75.0065611,24.0745055 Z M50.3425611,26.8685055 C51.1615611,28.2875055 54.0595611,28.6925055 58.0945611,27.9525055 C62.6995611,27.1085055 68.2335611,24.9135055 73.6775611,21.7725055 C84.9525611,15.2615055 91.4655611,7.07950548 89.7565611,4.11250548 C89.2055611,3.15750548 87.7185611,2.66050548 85.5785611,2.66050548 C84.5305611,2.66050548 83.3275611,2.77950548 82.0005611,3.02250548 C77.3965611,3.86550548 71.8635611,6.06050548 66.4215611,9.20250548 C55.1425611,15.7165055 48.6305611,23.9015055 50.3425611,26.8685055 Z M52.1645611,67.5415055 C50.5345611,67.5415055 49.4525611,67.0585055 48.8925611,66.0895055 C47.9015611,64.3725055 49.0395611,62.0055055 52.3715611,58.8515055 C55.1465611,56.2255055 59.1635611,53.3415055 63.6845611,50.7305055 L63.6845611,50.7305055 C70.4465611,46.8255055 78.9135611,43.3275055 82.5895611,44.3155055 C83.6185611,44.5925055 84.1305611,45.1655055 84.3795611,45.5975055 C85.3685611,47.3115055 84.2305611,49.6785055 80.8985611,52.8325055 C78.1235611,55.4585055 74.1055611,58.3425055 69.5855611,60.9535055 C65.0645611,63.5615055 60.5595611,65.5975055 56.8985611,66.6885055 C54.9885611,67.2565055 53.4145611,67.5415055 52.1645611,67.5415055 Z M56.6995611,63.9695055 C60.0645611,62.8985055 64.1695611,61.0105055 68.2565611,58.6525055 C72.3445611,56.2925055 76.0325611,53.6815055 78.6435611,51.3005055 C81.4205611,48.7685055 82.0405611,47.3335055 82.0595611,46.9335055 C81.7025611,46.7505055 80.1485611,46.5715055 76.5675611,47.7115055 C73.2015611,48.7825055 69.0975611,50.6715055 65.0135611,53.0305055 C60.9255611,55.3905055 57.2365611,58.0025055 54.6265611,60.3825055 C51.8545611,62.9105055 51.2315611,64.3445055 51.2105611,64.7475055 C51.5705611,64.9305055 53.1255611,65.1065055 56.6995611,63.9695055 Z M92.5855611,49.9645055 C95.8045611,55.5405055 86.2025611,65.0985055 75.5335611,71.2595055 C69.8345611,74.5495055 64.0005611,76.8545055 59.1045611,77.7515055 C57.6105611,78.0255055 56.2505611,78.1615055 55.0345611,78.1615055 C51.8385611,78.1615055 49.6335611,77.2225055 48.5685611,75.3775055 C47.2555611,73.1025055 45.9435611,70.8275055 44.6265611,68.5475055 C43.1565611,66.0035055 44.2665611,62.4395055 47.8375611,58.2405055 C51.0615611,54.4495055 55.9775611,50.5495055 61.6775611,47.2575055 C72.3445611,41.0975055 85.4195611,37.5585055 88.6415611,43.1335055 C89.9605611,45.4135055 91.2725611,47.6895055 92.5855611,49.9645055 Z M54.6815611,68.3075055 C59.2845611,67.4645055 64.8175611,65.2695055 70.2625611,62.1275055 C81.5385611,55.6155055 88.0505611,47.4325055 86.3425611,44.4635055 C86.3425611,44.4625055 86.3415611,44.4625055 86.3415611,44.4615055 C85.7875611,43.5025055 84.3305611,43.0155055 82.2335611,43.0155055 C77.8415611,43.0155055 70.6385611,45.1495055 63.0065611,49.5565055 C57.5625611,52.7005055 52.8945611,56.3955055 49.8615611,59.9605055 C47.2035611,63.0855055 46.1065611,65.7975055 46.9265611,67.2165055 L46.9265611,67.2165055 C46.9265611,67.2175055 46.9275611,67.2185055 46.9285611,67.2195055 C47.7515611,68.6395055 50.6485611,69.0455055 54.6815611,68.3075055 Z M90.2845611,51.2925055 C89.7385611,50.3465055 89.1915611,49.3995055 88.6455611,48.4525055 C86.5275611,53.6845055 79.3415611,59.9525055 71.5915611,64.4285055 C64.6505611,68.4335055 56.6905611,71.3295055 51.0885611,71.3295055 C50.4345611,71.3295055 49.8145611,71.2875055 49.2295611,71.2055055 C49.7765611,72.1525055 50.3245611,73.1015055 50.8705611,74.0485055 C51.4145611,74.9905055 52.8735611,75.4865055 54.9705611,75.4985055 L54.1515611,74.0805055 L56.4525611,72.7525055 L57.8995611,75.2605055 C58.1375611,75.2235055 58.3795611,75.1835055 58.6255611,75.1385055 C59.9335611,74.8985055 61.3175611,74.5465055 62.7525611,74.0985055 L61.6545611,72.1995055 L63.9545611,70.8695055 L65.3095611,73.2145055 C66.7575611,72.6675055 68.2415611,72.0305055 69.7395611,71.3125055 L68.5645611,69.2785055 L70.8655611,67.9495055 L72.1155611,70.1145055 C72.8115611,69.7445055 73.5075611,69.3595055 74.2035611,68.9585055 C74.9065611,68.5525055 75.5915611,68.1395055 76.2565611,67.7225055 L75.0075611,65.5555055 L77.3095611,64.2285055 L78.4805611,66.2605055 C79.8695611,65.3045055 81.1565611,64.3335055 82.3315611,63.3675055 L80.9875611,61.0375055 L83.2895611,59.7105055 L84.3735611,61.5915055 C85.7275611,60.3425055 86.8785611,59.1215055 87.8085611,57.9695055 L86.3715611,55.4835055 L88.6725611,54.1545055 L89.4865611,55.5625055 C90.5315611,53.7495055 90.8365611,52.2495055 90.2845611,51.2925055 Z M38.1845611,55.6405055 C32.5825611,55.6405055 24.6225611,52.7425055 17.6825611,48.7345055 C11.9835611,45.4455055 7.06756112,41.5455055 3.84256112,37.7535055 C0.270561123,33.5535055 -0.839438877,29.9885055 0.631561123,27.4445055 C1.58656112,25.7965055 2.53756112,24.1455055 3.48856112,22.4965055 L4.57256112,20.6165055 C4.57256112,20.6155055 4.57356112,20.6155055 4.57356112,20.6145055 L4.57356112,20.6145055 L4.57356112,20.6145055 C7.79756112,15.0355055 20.8725611,18.5755055 31.5385611,24.7375055 C37.2375611,28.0265055 42.1525611,31.9255055 45.3785611,35.7185055 C48.9495611,39.9175055 50.0605611,43.4825055 48.5905611,46.0265055 L44.6485611,52.8575055 C43.5215611,54.8045055 41.1925611,55.6405055 38.1845611,55.6405055 Z M22.9535611,39.6025055 C28.3965611,42.7455055 33.9305611,44.9415055 38.5365611,45.7845055 C42.5725611,46.5235055 45.4695611,46.1175055 46.2885611,44.6985055 L46.2885611,44.6985055 L46.2895611,44.6975055 C47.1095611,43.2785055 46.0125611,40.5645055 43.3545611,37.4395055 C40.3205611,33.8725055 35.6525611,30.1785055 30.2105611,27.0375055 C22.5815611,22.6295055 15.3775611,20.4945055 10.9855611,20.4945055 C8.88656112,20.4945055 7.43056112,20.9815055 6.87556112,21.9405055 C5.16256112,24.9105055 11.6745611,33.0945055 22.9535611,39.6025055 Z M43.9875611,48.6845055 C43.4105611,48.7655055 42.7915611,48.8085055 42.1275611,48.8085055 C40.9115611,48.8085055 39.5525611,48.6725055 38.0575611,48.3985055 C33.1595611,47.5015055 27.3235611,45.1945055 21.6255611,41.9035055 C13.8755611,37.4315055 6.68956112,31.1665055 4.57156112,25.9335055 C4.02456112,26.8805055 3.47956112,27.8275055 2.93156112,28.7735055 C2.38856112,29.7135055 2.68756112,31.2235055 3.72556112,33.0445055 L4.54156112,31.6295055 L6.84356112,32.9555055 L5.39856112,35.4635055 C5.54956112,35.6515055 5.70556112,35.8405055 5.86756112,36.0315055 C6.72956112,37.0445055 7.72756112,38.0685055 8.83256112,39.0865055 L9.93056112,37.1845055 L12.2315611,38.5135055 L10.8765611,40.8605055 C12.0735611,41.8405055 13.3665611,42.8055055 14.7365611,43.7435055 L15.9115611,41.7085055 L18.2125611,43.0375055 L16.9625611,45.2025055 C17.6315611,45.6215055 18.3155611,46.0325055 19.0115611,46.4345055 C19.7135611,46.8405055 20.4125611,47.2265055 21.1065611,47.5935055 L22.3555611,45.4305055 L24.6565611,46.7595055 L23.4845611,48.7895055 C25.0075611,49.5155055 26.4915611,50.1455055 27.9165611,50.6805055 L29.2605611,48.3525055 L31.5615611,49.6805055 L30.4755611,51.5615055 C32.2325611,52.1095055 33.8655611,52.4955055 35.3275611,52.7255055 L36.7625611,50.2355055 L39.0645611,51.5625055 L38.2495611,52.9755055 C40.3405611,52.9735055 41.7925611,52.4875055 42.3455611,51.5305055 L43.9875611,48.6845055 Z M23.6315611,38.4295055 C29.6075611,41.8805055 36.9155611,45.0135055 41.0695611,45.0135055 C41.6165611,45.0135055 42.1085611,44.9595055 42.5355611,44.8445055 C43.5645611,44.5675055 44.0765611,43.9945055 44.3235611,43.5655055 C44.5735611,43.1335055 44.8135611,42.4035055 44.5375611,41.3745055 C43.5525611,37.6945055 36.2905611,32.1115055 29.5305611,28.2125055 L28.2025611,30.5145055 C32.2855611,32.8695055 35.9725611,35.4785055 38.5845611,37.8595055 C41.3615611,40.3905055 41.9845611,41.8265055 42.0045611,42.2275055 C41.6475611,42.4105055 40.0935611,42.5885055 36.5135611,41.4495055 C33.1475611,40.3785055 29.0435611,38.4895055 24.9595611,36.1305055 C20.8755611,33.7715055 17.1875611,31.1625055 14.5775611,28.7835055 C11.8125611,26.2645055 11.1825611,24.8305055 11.1575611,24.4225055 C11.3955611,24.3145055 12.5405611,23.9695055 16.0555611,25.0115055 C19.0645611,25.9035055 22.8135611,27.5385055 26.6115611,29.6145055 L27.8855611,27.2835055 C25.1595611,25.7935055 11.4305611,18.5875055 8.83956112,23.0775055 C8.58956112,23.5085055 8.34956112,24.2385055 8.62456112,25.2675055 C9.60656112,28.9395055 16.8695611,34.5245055 23.6315611,38.4295055 Z" id="Shape"></path>
        </g>
    </g>
</svg>