<svg width="16" height="16" viewBox="0 0 16 16" fill="none" xmlns="http://www.w3.org/2000/svg">
<path d="M6.68293 6.68228C8.25205 6.68228 9.52407 5.41026 9.52407 3.84114C9.52407 2.27202 8.25205 1 6.68293 1C5.11382 1 3.8418 2.27202 3.8418 3.84114C3.8418 5.41026 5.11382 6.68228 6.68293 6.68228Z" stroke="white"/>
<path d="M12.3631 12.3639C12.3646 12.2474 12.3646 12.1288 12.3646 12.0088C12.3646 10.2437 9.82031 8.8125 6.68228 8.8125C3.54424 8.8125 1 10.2437 1 12.0088C1 13.7738 1 15.2051 6.68228 15.2051C8.26692 15.2051 9.40977 15.0935 10.2337 14.8947" stroke="white" stroke-linecap="round"/>
<path d="M14.25 7.75L14.25 6.25L15.75 6.25C15.8163 6.25 15.8799 6.22366 15.9268 6.17678C15.9737 6.12989 16 6.0663 16 6C16 5.9337 15.9737 5.87011 15.9268 5.82322C15.8799 5.77634 15.8163 5.75 15.75 5.75L14.25 5.75L14.25 4.25C14.25 4.1837 14.2237 4.12011 14.1768 4.07322C14.1299 4.02634 14.0663 4 14 4C13.9337 4 13.8701 4.02634 13.8232 4.07322C13.7763 4.12011 13.75 4.1837 13.75 4.25L13.75 5.75L12.25 5.75C12.1837 5.75 12.1201 5.77634 12.0732 5.82322C12.0263 5.87011 12 5.9337 12 6C12 6.0663 12.0263 6.12989 12.0732 6.17678C12.1201 6.22366 12.1837 6.25 12.25 6.25L13.75 6.25L13.75 7.75C13.75 7.8163 13.7763 7.87989 13.8232 7.92678C13.8701 7.97366 13.9337 8 14 8C14.0663 8 14.1299 7.97366 14.1768 7.92678C14.2237 7.87989 14.25 7.8163 14.25 7.75Z" fill="white"/>
</svg>
