<svg width="82" height="82" viewBox="0 0 82 82" fill="none" xmlns="http://www.w3.org/2000/svg">
<path d="M41 82C18.3563 82 0 63.6437 0 41C0 18.3563 18.3563 0 41 0C63.6437 0 82 18.3563 82 41C82 63.6437 63.6437 82 41 82ZM41 13.6251C25.8812 13.6251 13.6251 25.8812 13.6251 41C13.6251 56.1188 25.8812 68.3749 41 68.3749C56.1188 68.3749 68.3749 56.1188 68.3749 41C68.3749 25.8812 56.1188 13.6251 41 13.6251Z" fill="url(#paint0_angular_4001_41)"/>
<ellipse cx="6.83317" cy="41.0003" rx="6.83333" ry="6.83333" transform="rotate(90 6.83317 41.0003)" fill="white"/>
<defs>
<radialGradient id="paint0_angular_4001_41" cx="0" cy="0" r="1" gradientUnits="userSpaceOnUse" gradientTransform="translate(41 41) rotate(180) scale(41)">
<stop stop-color="#6437A0"/>
<stop offset="1" stop-color="#6437A0" stop-opacity="0"/>
</radialGradient>
</defs>
</svg>
