<svg width="12" height="12" viewBox="0 0 12 12" fill="none" xmlns="http://www.w3.org/2000/svg">
<path d="M1.212 12C0.8665 12 0.57825 11.8845 0.34725 11.6535C0.11625 11.4225 0.0005 11.134 0 10.788V1.212C0 0.8665 0.11575 0.57825 0.34725 0.34725C0.57875 0.11625 0.867 0.0005 1.212 0H5.81425C5.92471 0 6.01425 0.0895431 6.01425 0.2V0.55C6.01425 0.660457 5.92471 0.75 5.81425 0.75H1.212C1.0965 0.75 0.9905 0.798 0.894 0.894C0.7975 0.99 0.7495 1.096 0.75 1.212V10.7888C0.75 10.9038 0.798 11.0095 0.894 11.106C0.99 11.2025 1.09575 11.2505 1.21125 11.25H5.81425C5.92471 11.25 6.01425 11.3395 6.01425 11.45V11.8C6.01425 11.9105 5.92471 12 5.81425 12H1.212ZM9.48972 8.51099C9.41092 8.58981 9.28289 8.58901 9.20508 8.5092L8.95786 8.25565C8.88144 8.17727 8.88224 8.05201 8.95964 7.97461L10.2178 6.71642C10.3438 6.59043 10.2546 6.375 10.0764 6.375H4.094C3.98354 6.375 3.894 6.28546 3.894 6.175V5.825C3.894 5.71454 3.98354 5.625 4.094 5.625H10.0764C10.2546 5.625 10.3438 5.40957 10.2178 5.28358L8.95909 4.02484C8.8816 3.94735 8.8809 3.82195 8.9575 3.7436L9.20437 3.49111C9.2822 3.4115 9.41004 3.41077 9.48877 3.48948L11.8586 5.8586C11.9367 5.93669 11.9367 6.06333 11.8586 6.14144L9.48972 8.51099Z" fill="white"/>
</svg>
