<svg width="13" height="13" viewBox="0 0 13 13" fill="none" xmlns="http://www.w3.org/2000/svg">
<path d="M8.55877 8.03296L6.9832 6.45738L8.55877 4.88181C8.62841 4.81217 8.66754 4.71771 8.66754 4.61922C8.66754 4.52072 8.62841 4.42627 8.55877 4.35662C8.48913 4.28698 8.39467 4.24785 8.29617 4.24785C8.19768 4.24785 8.10322 4.28698 8.03358 4.35662L6.45801 5.93219L4.88244 4.35662C4.81279 4.28698 4.71833 4.24785 4.61984 4.24785C4.52135 4.24785 4.42689 4.28698 4.35725 4.35662C4.2876 4.42627 4.24848 4.52072 4.24848 4.61922C4.24848 4.71771 4.2876 4.81217 4.35725 4.88181L5.93282 6.45738L4.35725 8.03296C4.2876 8.1026 4.24847 8.19706 4.24847 8.29555C4.24847 8.39404 4.2876 8.4885 4.35725 8.55815C4.42689 8.62779 4.52135 8.66692 4.61984 8.66692C4.71833 8.66692 4.81279 8.62779 4.88244 8.55815L6.45801 6.98257L8.03358 8.55815C8.10322 8.62779 8.19768 8.66692 8.29617 8.66692C8.39467 8.66692 8.48913 8.62779 8.55877 8.55815C8.62841 8.4885 8.66754 8.39404 8.66754 8.29555C8.66754 8.19706 8.62841 8.1026 8.55877 8.03296Z" fill="#F6465D"/>
<circle cx="6.5" cy="6.5" r="6.2" stroke="#F6465D" stroke-width="0.6"/>
</svg>
