<svg width="16" height="16" viewBox="0 0 16 16" fill="none" xmlns="http://www.w3.org/2000/svg">
<path d="M14.8301 6.11723C14.7765 5.94781 14.6733 5.79841 14.5338 5.68841C14.3942 5.57841 14.2248 5.51289 14.0476 5.50035L10.282 5.19598L8.83073 1.68348C8.76302 1.51884 8.64791 1.37803 8.50002 1.27895C8.35212 1.17986 8.17812 1.12695 8.0001 1.12695C7.82208 1.12695 7.64808 1.17986 7.50019 1.27895C7.3523 1.37803 7.23719 1.51884 7.16948 1.68348L5.71823 5.19473L1.9526 5.50035C1.77521 5.51298 1.60572 5.57868 1.46617 5.68892C1.32662 5.79916 1.22346 5.94883 1.1701 6.11848C1.11448 6.28767 1.11021 6.46955 1.15781 6.64117C1.20542 6.8128 1.30277 6.96648 1.4376 7.08285L4.3126 9.55848L3.4376 13.2616C3.39654 13.4349 3.40782 13.6165 3.47002 13.7834C3.53221 13.9503 3.64252 14.0949 3.78698 14.1991C3.92965 14.3048 4.10093 14.3649 4.27837 14.3716C4.4558 14.3783 4.63112 14.3313 4.78135 14.2366L8.0001 12.2579L11.2239 14.2397C11.3741 14.3344 11.5494 14.3814 11.7268 14.3748C11.9043 14.3681 12.0756 14.3079 12.2182 14.2022C12.3627 14.0981 12.473 13.9534 12.5352 13.7865C12.5974 13.6196 12.6087 13.438 12.5676 13.2647L11.6926 9.5616L14.5626 7.08285C14.6977 6.96638 14.7952 6.81248 14.8428 6.64061C14.8904 6.46873 14.886 6.2866 14.8301 6.11723ZM14.0714 6.51535L11.0282 9.14035C10.9763 9.18516 10.9377 9.24334 10.9165 9.30858C10.8953 9.37381 10.8925 9.4436 10.9082 9.51035L11.8382 13.4347C11.8464 13.4643 11.845 13.4958 11.8344 13.5246C11.8237 13.5534 11.8043 13.5782 11.7789 13.5954C11.7558 13.6132 11.7277 13.6234 11.6986 13.6245C11.6695 13.6256 11.6407 13.6176 11.6164 13.6016L8.19635 11.5004C8.13731 11.4641 8.06939 11.4449 8.0001 11.4449C7.93082 11.4449 7.86289 11.4641 7.80385 11.5004L4.38385 13.601C4.35949 13.617 4.33073 13.625 4.3016 13.6239C4.27247 13.6227 4.24442 13.6126 4.22135 13.5947C4.19534 13.578 4.17529 13.5534 4.16406 13.5245C4.15284 13.4957 4.15102 13.464 4.15885 13.4341L5.08885 9.50973C5.1046 9.44298 5.10173 9.37319 5.08058 9.30795C5.05942 9.24272 5.02078 9.18453 4.96885 9.13973L1.92573 6.51473C1.90185 6.49529 1.88463 6.46889 1.87645 6.4392C1.86827 6.40952 1.86955 6.37803 1.8801 6.3491C1.88825 6.32059 1.9051 6.29533 1.92829 6.27684C1.95148 6.25836 1.97986 6.24757 2.00948 6.24598L6.00448 5.92348C6.07332 5.91789 6.13927 5.89339 6.19508 5.8527C6.25088 5.812 6.29436 5.75669 6.32073 5.69285L7.8601 1.96785C7.87083 1.94028 7.88964 1.91659 7.91407 1.89989C7.93849 1.88318 7.96739 1.87425 7.99698 1.87425C8.02657 1.87425 8.05547 1.88318 8.07989 1.89989C8.10431 1.91659 8.12312 1.94028 8.13385 1.96785L9.67323 5.69285C9.69959 5.75669 9.74307 5.812 9.79888 5.8527C9.85468 5.89339 9.92064 5.91789 9.98948 5.92348L13.9845 6.24598C14.0141 6.24757 14.0425 6.25836 14.0657 6.27684C14.0889 6.29533 14.1057 6.32059 14.1139 6.3491C14.1249 6.3778 14.1267 6.40922 14.1191 6.43901C14.1115 6.4688 14.0948 6.49548 14.0714 6.51535Z" fill="white"/>
</svg>
