<svg aria-hidden="true" style="position: absolute; width: 0; height: 0; overflow: hidden;" version="1.1" xmlns="http://www.w3.org/2000/svg" xmlns:xlink="http://www.w3.org/1999/xlink">
<defs>
<symbol id="icon-third-page" viewBox="0 0 39 32">
<path d="M21.196 10.661c-0.396-0.686 0.059-1.633 1.392-2.894 1.11-1.050 2.717-2.204 4.525-3.248v0c1.808-1.043 3.61-1.858 5.075-2.294 1.758-0.524 2.806-0.445 3.202 0.24 0.397 0.687-0.059 1.634-1.392 2.895-1.11 1.050-2.717 2.204-4.525 3.248s-3.61 1.858-5.076 2.295c-0.763 0.227-1.392 0.341-1.892 0.341-0.652 0-1.085-0.194-1.309-0.582zM19.49 11.646c-1.288-2.23 2.553-6.054 6.821-8.518 2.28-1.316 4.613-2.238 6.572-2.597 2.169-0.397 3.626-0.069 4.214 0.95 0 0 0 0 0 0.001 0.525 0.91 1.050 1.819 1.576 2.731 0.588 1.018 0.144 2.443-1.285 4.123-1.29 1.516-3.256 3.077-5.536 4.393-2.777 1.602-5.962 2.761-8.203 2.762-1.203 0-2.133-0.334-2.583-1.112-0.32-0.556-0.64-1.109-0.96-1.663-0.206-0.356-0.412-0.713-0.617-1.070zM30.276 9.998c-2.28 1.316-4.614 2.238-6.573 2.597-0.598 0.11-1.143 0.164-1.63 0.164-0.265 0-0.512-0.017-0.743-0.049 0.219 0.379 0.438 0.759 0.657 1.139 0.221 0.382 0.802 0.576 1.638 0.576l-0.325-0.565 0.921-0.531 0.574 0.995c0.585-0.092 1.238-0.246 1.941-0.466l-0.434-0.754 0.921-0.531 0.537 0.932c0.57-0.214 1.164-0.466 1.773-0.756l-0.468-0.811 0.92-0.532 0.5 0.865c0.277-0.147 0.557-0.301 0.838-0.464 0.278-0.161 0.552-0.325 0.82-0.493l-0.5-0.866 0.92-0.532 0.47 0.814c0.548-0.376 1.066-0.762 1.544-1.154l-0.542-0.937 0.92-0.532 0.44 0.76c0.442-0.407 0.842-0.817 1.186-1.222 0.065-0.076 0.127-0.152 0.187-0.226l-0.578-1.003 0.921-0.531 0.326 0.566c0.415-0.728 0.535-1.332 0.318-1.708-0.219-0.38-0.438-0.758-0.656-1.137-0.848 2.094-3.722 4.6-6.821 6.39zM20.411 11.115c0.328 0.568 1.487 0.73 3.101 0.434 1.842-0.338 4.056-1.216 6.233-2.472 4.51-2.604 7.115-5.877 6.432-7.064-0.22-0.382-0.815-0.581-1.671-0.581-0.419 0-0.9 0.048-1.431 0.145-1.842 0.337-4.055 1.215-6.232 2.472-4.512 2.606-7.116 5.88-6.432 7.066zM21.14 27.384c-0.652 0-1.085-0.193-1.309-0.581-0.396-0.687 0.059-1.634 1.392-2.895 1.11-1.050 2.717-2.204 4.525-3.248v0c2.705-1.562 6.092-2.961 7.562-2.566 0.412 0.111 0.616 0.34 0.716 0.513 0.396 0.686-0.060 1.632-1.392 2.894-1.11 1.050-2.717 2.204-4.525 3.248-1.808 1.043-3.61 1.858-5.075 2.294-0.764 0.227-1.394 0.341-1.894 0.341zM22.954 25.956c1.346-0.428 2.988-1.184 4.623-2.127s3.11-1.988 4.155-2.941c1.111-1.013 1.359-1.587 1.366-1.747-0.143-0.073-0.764-0.145-2.197 0.311-1.346 0.428-2.988 1.184-4.622 2.128-1.635 0.944-3.111 1.989-4.155 2.941-1.109 1.011-1.358 1.585-1.366 1.746 0.144 0.073 0.766 0.144 2.196-0.311zM37.308 20.354c1.288 2.23-2.553 6.054-6.821 8.518-2.28 1.316-4.613 2.238-6.572 2.597-0.598 0.11-1.142 0.164-1.628 0.164-1.278 0-2.16-0.376-2.586-1.114-0.525-0.91-1.050-1.82-1.577-2.732-0.588-1.018-0.144-2.443 1.284-4.123 1.29-1.516 3.256-3.076 5.536-4.393 4.267-2.464 9.497-3.88 10.786-1.65 0.528 0.912 1.052 1.822 1.578 2.732zM22.146 27.691c1.841-0.337 4.054-1.215 6.232-2.472 4.51-2.605 7.115-5.878 6.432-7.066 0-0-0-0-0-0.001-0.222-0.384-0.804-0.578-1.643-0.578-1.757 0-4.638 0.854-7.691 2.616-2.178 1.258-4.045 2.736-5.258 4.162-1.063 1.25-1.502 2.335-1.174 2.902v0c0 0 0 0.001 0.001 0.001 0.329 0.568 1.488 0.73 3.101 0.435zM36.388 20.885c-0.218-0.378-0.437-0.757-0.656-1.136-0.847 2.093-3.722 4.6-6.822 6.39-2.776 1.602-5.96 2.76-8.201 2.76-0.262 0-0.51-0.017-0.744-0.050 0.219 0.379 0.438 0.758 0.656 1.137 0.218 0.377 0.801 0.575 1.64 0.58l-0.328-0.567 0.92-0.531 0.579 1.003c0.095-0.015 0.192-0.031 0.29-0.049 0.523-0.096 1.077-0.237 1.651-0.416l-0.439-0.76 0.92-0.532 0.542 0.938c0.579-0.219 1.173-0.474 1.772-0.761l-0.47-0.814 0.92-0.532 0.5 0.866c0.278-0.148 0.557-0.302 0.835-0.462 0.281-0.162 0.555-0.328 0.821-0.494l-0.5-0.867 0.921-0.531 0.468 0.813c0.556-0.382 1.070-0.771 1.54-1.157l-0.538-0.932 0.921-0.531 0.434 0.752c0.542-0.5 1.002-0.988 1.374-1.449l-0.575-0.994 0.92-0.532 0.326 0.563c0.418-0.725 0.54-1.325 0.319-1.708zM15.548 22.624c-2.241 0-5.425-1.159-8.201-2.762-2.28-1.316-4.246-2.876-5.536-4.392-1.429-1.68-1.873-3.106-1.284-4.124 0.382-0.659 0.762-1.32 1.143-1.979l0.434-0.752c0-0 0-0 0-0.001v0 0c1.29-2.232 6.52-0.816 10.786 1.649 2.28 1.316 4.246 2.875 5.536 4.392 1.428 1.68 1.873 3.106 1.285 4.123l-1.577 2.732c-0.451 0.779-1.382 1.113-2.586 1.113zM9.455 16.209c2.177 1.257 4.391 2.136 6.233 2.473 1.614 0.296 2.773 0.133 3.101-0.434v0l0-0c0.328-0.568-0.111-1.653-1.174-2.903-1.214-1.427-3.081-2.904-5.258-4.161-3.052-1.763-5.933-2.617-7.69-2.617-0.84 0-1.422 0.195-1.644 0.578-0.685 1.188 1.92 4.462 6.431 7.065zM17.869 19.842c-0.231 0.032-0.478 0.050-0.744 0.050-0.486 0-1.030-0.054-1.628-0.164-1.959-0.359-4.294-1.282-6.573-2.598-3.1-1.789-5.974-4.295-6.822-6.388-0.219 0.379-0.437 0.758-0.656 1.136-0.217 0.376-0.098 0.98 0.318 1.708l0.326-0.566 0.921 0.53-0.578 1.003c0.060 0.075 0.123 0.151 0.188 0.227 0.345 0.405 0.744 0.815 1.186 1.222l0.439-0.761 0.92 0.532-0.542 0.939c0.479 0.392 0.996 0.778 1.544 1.153l0.47-0.814 0.92 0.532-0.5 0.866c0.268 0.168 0.541 0.332 0.82 0.493 0.281 0.162 0.56 0.317 0.838 0.464l0.5-0.865 0.92 0.532-0.469 0.812c0.609 0.29 1.203 0.542 1.773 0.756l0.538-0.931 0.92 0.531-0.434 0.752c0.703 0.219 1.356 0.374 1.941 0.466l0.574-0.996 0.921 0.531-0.326 0.565c0.836-0.001 1.417-0.195 1.638-0.578l0.657-1.138zM9.726 15.74c2.39 1.38 5.314 2.634 6.975 2.634 0.219 0 0.416-0.022 0.586-0.068 0.412-0.111 0.616-0.34 0.715-0.512 0.1-0.173 0.196-0.465 0.086-0.876-0.394-1.472-3.299-3.705-6.003-5.265l-0.531 0.921c1.633 0.942 3.108 1.986 4.153 2.938 1.111 1.012 1.36 1.587 1.368 1.747-0.143 0.073-0.764 0.144-2.196-0.311-1.346-0.428-2.988-1.184-4.622-2.128s-3.109-1.987-4.153-2.939c-1.106-1.008-1.358-1.581-1.368-1.744 0.095-0.043 0.553-0.181 1.959 0.236 1.204 0.357 2.703 1.011 4.222 1.841l0.51-0.932c-1.090-0.596-6.582-3.478-7.618-1.682-0.1 0.172-0.196 0.464-0.086 0.876 0.393 1.469 3.298 3.703 6.003 5.265z"></path>
</symbol>
<symbol id="icon-arrow-up" viewBox="0 0 26 32">
<path fill="#cfcfcf" style="fill: var(--color1, #cfcfcf)" d="M12.127 0.49c0.256-0.255 0.602-0.399 0.964-0.399s0.708 0.143 0.964 0.399l10.909 10.909c0.134 0.125 0.241 0.275 0.316 0.443s0.115 0.348 0.118 0.531c0.003 0.183-0.030 0.365-0.099 0.535s-0.171 0.324-0.3 0.454c-0.129 0.129-0.284 0.232-0.454 0.3s-0.352 0.102-0.535 0.099c-0.183-0.003-0.364-0.043-0.531-0.118s-0.318-0.182-0.443-0.316l-8.582-8.582v25.8c0 0.362-0.144 0.708-0.399 0.964s-0.603 0.399-0.964 0.399-0.708-0.143-0.964-0.399c-0.256-0.256-0.399-0.602-0.399-0.964v-25.8l-8.582 8.582c-0.125 0.134-0.275 0.241-0.443 0.316s-0.348 0.115-0.531 0.118c-0.183 0.003-0.365-0.030-0.535-0.099s-0.324-0.171-0.454-0.3c-0.129-0.13-0.232-0.284-0.3-0.454s-0.102-0.352-0.099-0.535c0.003-0.183 0.043-0.364 0.118-0.531s0.182-0.318 0.316-0.443l10.909-10.909z"></path>
</symbol>
<symbol id="icon-eye" viewBox="0 0 46 32">
<path fill="#fff" style="fill: var(--color2, #fff)" d="M29.445 17.41c-0.234 0.53-0.528 1.027-0.871 1.482-1.308 1.74-3.346 2.858-5.636 2.858-3.58 0-7.161-2.702-7.161-6.82s3.206-7.457 7.161-7.457 7.161 3.339 7.161 7.457c0 0.475-0.234 1.531-0.654 2.48zM22.938 18.022c0.895 0 1.713-0.342 2.343-0.908 0.759-0.683 1.093-1.693 1.093-2.183 0-2.059-1.457-3.729-3.436-3.729s-3.597 1.667-3.597 3.726c0 1.422 1.618 3.094 3.597 3.094z"></path>
<path fill="#fff" style="fill: var(--color2, #fff)" d="M0.162 15.433c-0.028-0.035 0.028 0.036 0 0-0.219-0.3-0.213-0.656 0.001-0.959 0.016-0.022 0.032-0.045 0.048-0.069 6.437-9.403 14.42-14.405 22.671-14.405 8.243 0 16.218 4.989 22.649 14.373 0.122 0.178 0.184 0.361 0.184 0.58 0 0.23-0.072 0.423-0.2 0.61-6.428 9.367-14.397 14.345-22.632 14.345-8.273 0-16.276-5.026-22.72-14.475zM5.168 13.815c-0.529 0.658-0.529 1.618-0 2.276 5.512 6.857 11.719 10.078 17.714 10.078s12.203-3.221 17.715-10.078c0.529-0.659 0.529-1.618 0-2.277-5.512-6.857-11.719-10.076-17.715-10.076s-12.202 3.219-17.714 10.076z"></path>
</symbol>
<symbol id="icon-fifth-page" viewBox="0 0 31 32">
<path fill="#444456" style="fill: var(--color3, #444456)" d="M16.848 11.333c0-0.338 0.134-0.661 0.373-0.9s0.562-0.373 0.9-0.373h5.939c0.337 0 0.661 0.134 0.9 0.373s0.373 0.562 0.373 0.9c0 0.338-0.134 0.661-0.373 0.9s-0.562 0.373-0.9 0.373h-5.939c-0.337 0-0.661-0.134-0.9-0.373s-0.373-0.562-0.373-0.9zM18.121 19.394c-0.337 0-0.661 0.134-0.9 0.373s-0.373 0.562-0.373 0.9c0 0.338 0.134 0.661 0.373 0.9s0.562 0.373 0.9 0.373h5.939c0.337 0 0.661-0.134 0.9-0.373s0.373-0.562 0.373-0.9c0-0.337-0.134-0.661-0.373-0.9s-0.562-0.373-0.9-0.373h-5.939zM13.93 10.536c0.125-0.117 0.225-0.257 0.295-0.413s0.107-0.325 0.11-0.496c0.003-0.171-0.028-0.341-0.092-0.499s-0.159-0.302-0.28-0.423c-0.121-0.121-0.265-0.216-0.423-0.28s-0.328-0.095-0.499-0.092c-0.171 0.003-0.339 0.040-0.496 0.11s-0.297 0.17-0.413 0.295l-2.495 2.495-0.798-0.798c-0.241-0.225-0.56-0.347-0.89-0.341s-0.644 0.139-0.877 0.373c-0.233 0.233-0.367 0.548-0.373 0.877s0.117 0.649 0.341 0.89l1.697 1.697c0.239 0.238 0.562 0.372 0.899 0.372s0.661-0.134 0.899-0.372l3.394-3.394zM13.93 18.070c0.238 0.239 0.372 0.562 0.372 0.899s-0.134 0.661-0.372 0.899l-3.394 3.394c-0.239 0.238-0.562 0.372-0.899 0.372s-0.661-0.134-0.899-0.372l-1.697-1.697c-0.125-0.116-0.225-0.257-0.295-0.413s-0.107-0.325-0.11-0.496c-0.003-0.171 0.028-0.34 0.092-0.499s0.159-0.302 0.28-0.423c0.121-0.121 0.265-0.216 0.423-0.28s0.328-0.095 0.499-0.093c0.171 0.003 0.339 0.040 0.496 0.11s0.297 0.17 0.413 0.295l0.798 0.798 2.495-2.495c0.239-0.238 0.562-0.372 0.899-0.372s0.661 0.134 0.899 0.372zM6.242 0.727c-1.463 0-2.865 0.581-3.9 1.615s-1.615 2.437-1.615 3.9v19.515c0 1.463 0.581 2.866 1.615 3.9s2.437 1.615 3.9 1.615h19.515c1.463 0 2.866-0.581 3.9-1.615s1.615-2.437 1.615-3.9v-19.515c0-1.463-0.581-2.865-1.615-3.9s-2.437-1.615-3.9-1.615h-19.515zM3.273 6.242c0-1.639 1.33-2.97 2.97-2.97h19.515c1.639 0 2.97 1.33 2.97 2.97v19.515c0 0.788-0.313 1.543-0.87 2.1s-1.312 0.87-2.1 0.87h-19.515c-0.788 0-1.543-0.313-2.1-0.87s-0.87-1.312-0.87-2.1v-19.515z"></path>
</symbol>
<symbol id="icon-first-page" viewBox="0 0 35 32">
<path fill="#444456" style="fill: var(--color3, #444456)" d="M34.058 12.491h-1.17v-7.018c0-0.31-0.123-0.608-0.343-0.827s-0.517-0.343-0.827-0.343h-28.070c-0.277 0.005-0.546-0.089-0.761-0.265s-0.359-0.422-0.409-0.694v-0.421c0.050-0.272 0.195-0.518 0.409-0.694s0.484-0.27 0.761-0.265h27.579c0.31 0 0.608-0.123 0.827-0.343s0.343-0.517 0.343-0.827-0.123-0.608-0.343-0.827c-0.219-0.219-0.517-0.343-0.827-0.343h-27.579c-0.931 0-1.823 0.37-2.481 1.028s-1.028 1.55-1.028 2.481c-0.008 0.14-0.008 0.281 0 0.421v24.058c0.005 0.63 0.133 1.252 0.378 1.832s0.602 1.106 1.051 1.548c0.449 0.442 0.98 0.791 1.563 1.028s1.208 0.356 1.838 0.352h26.749c0.31 0 0.608-0.123 0.827-0.343s0.343-0.517 0.343-0.827v-7.017h1.17c0.31 0 0.608-0.123 0.827-0.343s0.343-0.517 0.343-0.827v-9.357c0-0.31-0.123-0.608-0.343-0.827s-0.517-0.343-0.827-0.343zM30.549 30.034h-25.579c-0.651 0.006-1.277-0.245-1.744-0.698s-0.735-1.073-0.748-1.723v-21.111c0.38 0.11 0.775 0.158 1.17 0.14h26.901v5.848h-8.187c-1.551 0-3.038 0.616-4.135 1.713s-1.713 2.584-1.713 4.135c0 1.551 0.616 3.038 1.713 4.135s2.584 1.713 4.135 1.713h8.187v5.848zM32.888 21.847h-10.526c-0.931 0-1.823-0.37-2.481-1.028s-1.028-1.55-1.028-2.481c0-0.931 0.37-1.823 1.028-2.481s1.55-1.028 2.481-1.028h10.526v7.018z"></path>
<path fill="#444456" style="fill: var(--color3, #444456)" d="M23.544 20.094c0.969 0 1.754-0.786 1.754-1.754s-0.785-1.754-1.754-1.754c-0.969 0-1.754 0.785-1.754 1.754s0.786 1.754 1.754 1.754z"></path>
</symbol>
<symbol id="icon-fourth-page" viewBox="0 0 26 32">
<path fill="none" stroke="#444456" style="stroke: var(--color3, #444456)" stroke-linejoin="miter" stroke-linecap="butt" stroke-miterlimit="4" stroke-width="2.2857" d="M12.951 13.080c3.226 0 5.841-2.615 5.841-5.841s-2.615-5.841-5.841-5.841c-3.226 0-5.841 2.615-5.841 5.841s2.615 5.841 5.841 5.841z"></path>
<path fill="none" stroke="#444456" style="stroke: var(--color3, #444456)" stroke-linejoin="miter" stroke-linecap="round" stroke-miterlimit="4" stroke-width="2.2857" d="M24.631 24.763c0.002-0.24 0.003-0.483 0.003-0.73 0-3.629-5.231-6.571-11.682-6.571s-11.683 2.942-11.683 6.571c0 3.629 0 6.571 11.683 6.571 3.258 0 5.608-0.229 7.302-0.638"></path>
</symbol>
<symbol id="icon-second-page" viewBox="0 0 32 32">
<path fill="#444456" style="fill: var(--color3, #444456)" d="M31.779 15.67c-0.054-0.568-0.343-1.093-0.794-1.442-0.834-0.646-2.018-0.563-2.73 0.172l-5.119 4.368c-0.367-0.334-0.853-0.54-1.387-0.54h-7.19c-3.676-0.922-6.928 0-9.676 2.727l-0.315-0.288c-0.482-0.439-1.232-0.405-1.672 0.075l-2.411 2.64c-0.213 0.233-0.322 0.535-0.308 0.851s0.151 0.607 0.384 0.82l7.371 6.733c0.22 0.201 0.501 0.31 0.797 0.31 0.018 0 0.037-0.001 0.055-0.001 0.316-0.014 0.607-0.151 0.82-0.384l2.411-2.64c0.213-0.234 0.323-0.536 0.308-0.851s-0.151-0.607-0.384-0.82l-0.176-0.161c0.643-0.504 1.377-0.789 2.059-0.789h6.088c2.056 0 4.015-0.885 5.375-2.427l5.985-6.788c0.377-0.427 0.563-0.998 0.509-1.566zM11.495 28.598l-2.411 2.64c-0.087 0.095-0.205 0.15-0.333 0.156-0.127 0.007-0.251-0.038-0.346-0.125l-7.371-6.734c-0.196-0.179-0.209-0.483-0.031-0.679l2.411-2.64c0.178-0.196 0.483-0.21 0.679-0.031l7.37 6.734c0.095 0.086 0.15 0.205 0.156 0.333s-0.039 0.252-0.125 0.346zM30.743 16.771l-5.985 6.788c-1.227 1.391-2.994 2.189-4.848 2.189h-6.089c-0.885 0-1.791 0.36-2.582 1.013l-5.837-5.333c2.596-2.568 5.551-3.393 9.026-2.509l7.321 0.011c0.751 0 1.362 0.611 1.362 1.362s-0.611 1.362-1.362 1.362l-7.132 1.058c-0.192 0.029-0.324 0.207-0.296 0.399 0.026 0.174 0.176 0.3 0.347 0.3 0.017 0 0.035-0.001 0.052-0.004l7.056-1.050c1.126-0.014 2.038-0.935 2.038-2.064 0-0.351-0.088-0.682-0.244-0.972l5.165-4.409c0.486-0.5 1.268-0.555 1.82-0.129 0.302 0.234 0.489 0.573 0.525 0.953s-0.084 0.748-0.337 1.034z"></path>
<path fill="#444456" style="fill: var(--color3, #444456)" d="M15.982 16.266c4.064 0 7.371-3.306 7.371-7.371s-3.307-7.371-7.371-7.371c-4.064 0-7.371 3.306-7.371 7.371s3.307 7.371 7.371 7.371zM15.982 2.227c3.677 0 6.668 2.991 6.668 6.668s-2.991 6.668-6.668 6.668c-3.677 0-6.668-2.991-6.668-6.668s2.992-6.668 6.668-6.668z"></path>
<path fill="#fff" style="fill: var(--color2, #fff)" d="M12.873 11.098l-1.102-3.896h0.673l0.818 3.044 0.885-3.044h0.59l0.879 3.044 0.818-3.044h0.673l-1.102 3.896h-0.74l-0.824-2.844-0.829 2.844h-0.74zM18.416 10.486h1.725v0.612h-2.365v-3.896h2.337v0.612h-1.697v1.013h1.558v0.607h-1.558v1.052z"></path>
</symbol>
<symbol id="icon-third-page" viewBox="0 0 39 32">
<path fill="#fff" style="fill: var(--color2, #fff)" d="M33.464 16.246c-2.090-0.796-5.059-1.312-8.391-1.312v-2.133c3.552 0 6.818 0.546 9.239 1.466 1.208 0.461 2.262 1.033 3.030 1.726 0.771 0.693 1.331 1.579 1.331 2.615 0 1.039-0.558 1.922-1.331 2.618-0.771 0.691-1.822 1.265-3.030 1.724-2.421 0.922-5.689 1.466-9.239 1.466-3.552 0-6.818-0.544-9.239-1.466-1.208-0.459-2.262-1.033-3.030-1.724-0.771-0.695-1.33-1.579-1.33-2.618h2.267c0 0.271 0.141 0.634 0.63 1.075s1.265 0.89 2.312 1.289c2.092 0.796 5.057 1.31 8.391 1.31 3.332 0 6.301-0.514 8.391-1.31 1.047-0.399 1.82-0.847 2.312-1.289s0.63-0.804 0.63-1.075c0-0.271-0.141-0.634-0.63-1.073-0.492-0.444-1.265-0.892-2.312-1.289z"></path>
<path fill="#fff" style="fill: var(--color2, #fff)" d="M12.607 18.489c0.301 0 0.589 0.112 0.801 0.312s0.332 0.471 0.332 0.754v6.635c0 0.273 0.141 0.636 0.63 1.075 0.492 0.444 1.265 0.892 2.312 1.291 2.092 0.794 5.057 1.31 8.391 1.31 3.332 0 6.301-0.516 8.391-1.31 1.047-0.399 1.82-0.847 2.312-1.291 0.49-0.439 0.63-0.802 0.63-1.073v-6.637c0-0.283 0.119-0.554 0.332-0.754s0.501-0.312 0.801-0.312 0.589 0.112 0.801 0.312c0.212 0.2 0.332 0.471 0.332 0.754v6.635c0 1.041-0.558 1.924-1.331 2.618s-1.822 1.265-3.030 1.726c-2.421 0.919-5.689 1.466-9.239 1.466-3.552 0-6.818-0.546-9.239-1.466-1.208-0.459-2.262-1.033-3.030-1.726-0.771-0.693-1.33-1.579-1.33-2.616v-6.637c0-0.283 0.119-0.554 0.332-0.754s0.501-0.312 0.801-0.312z"></path>
<path fill="#fff" style="fill: var(--color2, #fff)" d="M17.594 30.349h2.267v-7.949h-2.267v7.949zM27.567 29.867h2.267v-6.4h-2.267v6.4zM3.038 4.734c-0.49 0.439-0.63 0.802-0.63 1.073s0.141 0.634 0.63 1.075c0.49 0.442 1.265 0.89 2.312 1.289 2.092 0.796 5.057 1.31 8.391 1.31 3.332 0 6.301-0.514 8.391-1.31 1.047-0.399 1.82-0.847 2.312-1.289s0.63-0.804 0.63-1.075c0-0.271-0.141-0.634-0.63-1.073-0.492-0.444-1.265-0.892-2.312-1.291-2.092-0.794-5.059-1.31-8.391-1.31s-6.301 0.516-8.391 1.31c-1.047 0.399-1.82 0.847-2.312 1.291zM4.502 1.466c2.421-0.919 5.689-1.466 9.239-1.466 3.552 0 6.818 0.546 9.239 1.466 1.208 0.461 2.262 1.033 3.030 1.726 0.771 0.693 1.331 1.579 1.331 2.615 0 1.039-0.558 1.922-1.331 2.618-0.771 0.691-1.822 1.265-3.030 1.724-2.421 0.922-5.689 1.466-9.239 1.466-3.552 0-6.818-0.544-9.239-1.466-1.208-0.459-2.262-1.033-3.030-1.724-0.771-0.695-1.33-1.579-1.33-2.618 0-1.037 0.558-1.92 1.33-2.615s1.822-1.265 3.030-1.726z"></path>
<path fill="#fff" style="fill: var(--color2, #fff)" d="M1.275 5.69c0.301 0 0.589 0.112 0.801 0.312s0.332 0.471 0.332 0.754v6.635c0 0.273 0.141 0.636 0.63 1.075 0.492 0.444 1.265 0.892 2.312 1.291 2.092 0.794 5.057 1.31 8.391 1.31 3.332 0 6.301-0.516 8.391-1.31 1.047-0.399 1.82-0.847 2.312-1.291 0.49-0.44 0.63-0.802 0.63-1.073v-6.637c0-0.283 0.119-0.554 0.332-0.754s0.501-0.312 0.801-0.312 0.589 0.112 0.801 0.312c0.212 0.2 0.332 0.471 0.332 0.754v6.635c0 1.041-0.558 1.924-1.331 2.618s-1.822 1.267-3.030 1.726c-2.421 0.919-5.689 1.466-9.239 1.466-3.552 0-6.818-0.546-9.239-1.466-1.208-0.461-2.262-1.032-3.030-1.726-0.771-0.691-1.33-1.579-1.33-2.616v-6.637c0-0.283 0.119-0.554 0.332-0.754s0.501-0.312 0.801-0.312z"></path>
<path fill="#fff" style="fill: var(--color2, #fff)" d="M6.261 17.067h2.267v-7.226h-2.267v7.226zM16.234 17.067h2.267v-6.4h-2.267v6.4z"></path>
</symbol>
</defs>
</svg>
