<svg width="14" height="18" viewBox="0 0 14 18" fill="none" xmlns="http://www.w3.org/2000/svg">
<path d="M7.14321 7.65556C8.86513 7.65556 10.261 6.25966 10.261 4.53774C10.261 2.81582 8.86513 1.41992 7.14321 1.41992C5.42129 1.41992 4.02539 2.81582 4.02539 4.53774C4.02539 6.25966 5.42129 7.65556 7.14321 7.65556Z" fill="#313142" stroke="white"/>
<path d="M13.3779 13.8904C13.3795 13.7626 13.3795 13.6324 13.3795 13.5007C13.3795 11.5638 10.5875 9.99316 7.14384 9.99316C3.70021 9.99316 0.908203 11.5638 0.908203 13.5007C0.908203 15.4377 0.908203 17.0083 7.14384 17.0083C8.8828 17.0083 10.1369 16.8859 11.0411 16.6676" fill="#313142"/>
<path d="M13.3779 13.8904C13.3795 13.7626 13.3795 13.6324 13.3795 13.5007C13.3795 11.5638 10.5875 9.99316 7.14384 9.99316C3.70021 9.99316 0.908203 11.5638 0.908203 13.5007C0.908203 15.4377 0.908203 17.0083 7.14384 17.0083C8.8828 17.0083 10.1369 16.8859 11.0411 16.6676" stroke="white" stroke-linecap="round"/>
</svg>
