<svg width="38" height="18" viewBox="0 0 38 18" fill="none" xmlns="http://www.w3.org/2000/svg">
<path d="M17.3497 0.956633C17.5275 1.15714 17.6107 1.37072 17.6965 1.62184C18.2658 3.28596 18.772 5.08856 19.2826 6.78104C19.5344 7.61618 19.7315 8.50888 20.0075 9.32897C20.054 9.46718 20.1397 9.75891 20.3033 9.78169C20.5371 9.81423 20.5989 9.71969 20.6943 9.52616C21.0194 8.86762 21.2642 7.9032 21.5286 7.18737C22.1386 5.53523 22.7516 3.87302 23.3962 2.2342C23.6135 1.6819 23.8289 0.953297 24.4477 0.736937C24.8398 0.600112 26.0145 0.603729 26.4544 0.64127C27.3458 0.717468 27.4918 1.4661 27.235 2.19694C26.9884 2.8983 26.6127 3.63719 26.3289 4.33881C25.1025 7.36924 23.9157 10.4191 22.7029 13.4551C22.3465 14.3475 22.0337 15.3217 21.6402 16.1902C21.3449 16.8423 20.9219 17.2956 20.1528 17.3028C19.4293 17.3095 19.0071 16.9096 18.7525 16.2763C18.4342 15.4841 18.1976 14.5978 17.9212 13.7849C17.5898 12.8104 17.2423 11.8407 16.9209 10.8629C16.7469 10.334 16.6092 9.7319 16.4144 9.2208C16.3774 9.12402 16.3353 8.99802 16.2321 8.95327C16.0004 8.85313 15.9105 9.16574 15.8442 9.32729C15.6756 9.73941 15.5651 10.1775 15.4143 10.5963C14.8652 12.1233 14.3201 13.6587 13.7496 15.1778C13.3678 16.1943 13.1076 17.3945 11.7499 17.3012C11.0203 17.2508 10.7128 16.8053 10.4673 16.1846C10.1721 15.4379 9.92775 14.6403 9.6442 13.8848C8.42924 10.6499 7.15944 7.43629 5.92998 4.20701C5.6804 3.55182 4.99607 2.17246 5.06096 1.52895C5.10828 1.05786 5.51122 0.688828 5.97367 0.642386C6.37579 0.602061 7.26907 0.603173 7.67063 0.645166C8.42004 0.723589 8.67773 1.23834 8.93037 1.8596C9.94999 4.36638 10.7358 6.98211 11.657 9.52642C11.7124 9.73168 12.0209 9.91049 12.1885 9.74053C12.2472 9.68106 12.3705 9.38489 12.4066 9.29117C12.9201 7.96185 13.3113 6.47736 13.7758 5.11415C14.1707 3.9556 14.5739 2.64856 15.0372 1.52867C15.1599 1.23195 15.3227 0.966643 15.5946 0.786714C16.1152 0.441876 16.9253 0.479697 17.3486 0.956913L17.3497 0.956633Z" fill="white"/>
<path d="M37.6719 4.57123C38.3108 5.35176 37.7195 6.35002 36.6818 6.49136C34.1602 6.5614 31.6937 6.46744 29.1676 6.49136C28.7901 6.56239 28.3575 6.81874 28.2585 7.18599C28.186 7.45488 28.193 7.99671 28.2627 8.26692C28.3527 8.61671 28.6714 8.86189 29.0472 8.91392C31.6034 8.98315 34.1705 8.9238 36.7306 8.94412C38.7209 9.22803 38.2239 11.8979 36.2539 11.6561C34.013 11.6977 31.6471 11.5173 29.4146 11.6305C28.6864 11.6675 28.2498 11.9962 28.1997 12.6943C28.1815 12.949 28.1715 13.3731 28.2827 13.6005C28.5986 14.2483 29.324 14.163 29.968 14.1572C32.0149 14.1385 34.0826 14.094 36.1287 14.1572C36.631 14.1728 36.9229 14.0937 37.3676 14.3806C38.4807 15.0986 38.0282 16.793 36.6818 16.9155L24.3044 16.9389C23.782 16.8981 23.3696 16.7065 23.3192 16.1756C23.2793 15.7571 23.6797 15.1376 23.8542 14.7405C25.1561 11.7792 26.3585 8.77855 27.6753 5.82352C28.0419 5.00082 28.2453 3.84341 29.3898 3.77679C31.1448 3.67476 33.0073 3.7768 34.7782 3.77679C35.8552 3.77679 36.9673 3.71079 37.6719 4.57123Z" fill="white"/>
<path d="M4.85596 5.39551H0.236529C0.105898 5.39551 0 5.50133 0 5.63188C0 5.76243 0.105898 5.86825 0.236529 5.86825H4.85596C4.9866 5.86825 5.09249 5.76243 5.09249 5.63188C5.09249 5.50133 4.9866 5.39551 4.85596 5.39551Z" fill="white"/>
<path d="M5.96906 7.84375H0.236529C0.105898 7.84375 0 7.94957 0 8.08012C0 8.21067 0.105898 8.31653 0.236529 8.31653H5.96906C6.0997 8.31653 6.20559 8.21067 6.20559 8.08012C6.20559 7.94957 6.0997 7.84375 5.96906 7.84375Z" fill="white"/>
<path d="M6.9709 10.207H3.54805C3.41742 10.207 3.31152 10.3129 3.31152 10.4434C3.31152 10.574 3.41742 10.6798 3.54805 10.6798H6.9709C7.10154 10.6798 7.20743 10.574 7.20743 10.4434C7.20743 10.3129 7.10154 10.207 6.9709 10.207Z" fill="#733ABF"/>
<path d="M5.91343 11.9043H0.347858C0.217226 11.9043 0.111328 12.0101 0.111328 12.1407C0.111328 12.2712 0.217226 12.377 0.347858 12.377H5.91343C6.04407 12.377 6.14996 12.2712 6.14996 12.1407C6.14996 12.0101 6.04407 11.9043 5.91343 11.9043Z" fill="#733ABF"/>
<path d="M8.30672 14.2402H1.01582C0.885191 14.2402 0.779297 14.3461 0.779297 14.4766C0.779297 14.6072 0.885191 14.713 1.01582 14.713H8.30672C8.43736 14.713 8.54325 14.6072 8.54325 14.4766C8.54325 14.3461 8.43736 14.2402 8.30672 14.2402Z" fill="#733ABF"/>
<path d="M4.02114 2.94824H0.236529C0.105898 2.94824 0 3.05408 0 3.18462C0 3.31517 0.105898 3.421 0.236529 3.421H4.02114C4.15174 3.421 4.25767 3.31517 4.25767 3.18462C4.25767 3.05408 4.15174 2.94824 4.02114 2.94824Z" fill="white"/>
</svg>
