<svg width="730" height="115" viewBox="0 0 730 115" fill="none" xmlns="http://www.w3.org/2000/svg">
<path d="M118.557 3.42914C119.767 4.79347 120.333 6.24675 120.916 7.9555C124.79 19.2789 128.234 31.5447 131.709 43.0611C133.423 48.7438 134.764 54.8181 136.642 60.3984C136.958 61.3388 137.541 63.3239 138.655 63.4789C140.245 63.7003 140.666 63.057 141.315 61.7401C143.527 57.2592 145.193 50.6968 146.992 45.8259C151.142 34.584 155.314 23.2736 159.7 12.1223C161.178 8.36423 162.644 3.40645 166.855 1.93423C169.523 1.00321 177.516 1.02782 180.51 1.28327C186.575 1.80176 187.568 6.89582 185.821 11.8687C184.143 16.6411 181.587 21.6689 179.655 26.443C171.31 47.0634 163.235 67.8163 154.983 88.4743C152.557 94.5466 150.429 101.175 147.751 107.085C145.742 111.522 142.864 114.607 137.63 114.656C132.707 114.701 129.835 111.98 128.102 107.671C125.936 102.28 124.326 96.2496 122.446 90.7184C120.191 84.0879 117.826 77.4894 115.639 70.8361C114.455 67.237 113.518 63.1401 112.193 59.6623C111.941 59.0038 111.655 58.1465 110.952 57.842C109.375 57.1605 108.764 59.2877 108.313 60.3869C107.165 63.1912 106.413 66.1718 105.387 69.0218C101.651 79.4122 97.9417 89.8595 94.06 100.197C91.4621 107.113 89.6919 115.28 80.4534 114.645C75.4886 114.302 73.3962 111.271 71.7259 107.047C69.7169 101.966 68.0545 96.5391 66.125 91.398C57.8579 69.3868 49.2176 47.5197 40.8518 25.5462C39.1535 21.088 34.497 11.7022 34.9386 7.32348C35.2605 4.11794 38.0024 1.60687 41.1491 1.29087C43.8853 1.01647 49.9636 1.02404 52.696 1.30978C57.7953 1.8434 59.5487 5.34603 61.2678 9.57338C68.2058 26.6306 73.5531 44.4292 79.8209 61.7419C80.1978 63.1386 82.2974 64.3553 83.4374 63.1988C83.8369 62.7942 84.6757 60.7789 84.922 60.1412C88.4156 51.0958 91.0778 40.9947 94.2383 31.7188C96.9251 23.8355 99.6687 14.9418 102.822 7.32158C103.657 5.30252 104.764 3.49726 106.614 2.27294C110.157 -0.0735002 115.669 0.183853 118.549 3.43105L118.557 3.42914Z" fill="white"/>
<path d="M256.836 28.0248C261.183 33.3359 257.159 40.1285 250.098 41.0902C232.94 41.5669 216.157 40.9275 198.969 41.0902C196.4 41.5736 193.456 43.3179 192.782 45.8169C192.289 47.6465 192.337 51.3334 192.811 53.172C193.424 55.5521 195.592 57.2204 198.149 57.5745C215.543 58.0456 233.01 57.6417 250.431 57.78C263.974 59.7118 260.592 77.8787 247.187 76.2332C231.939 76.5169 215.84 75.2893 200.649 76.0596C195.694 76.3114 192.724 78.548 192.382 83.2976C192.259 85.0313 192.191 87.9165 192.947 89.4643C195.097 93.8721 200.033 93.2914 204.415 93.2524C218.343 93.1248 232.413 92.8219 246.335 93.2524C249.753 93.3586 251.739 92.8203 254.765 94.772C262.339 99.658 259.26 111.187 250.098 112.021L165.877 112.18C162.322 111.902 159.516 110.599 159.173 106.986C158.902 104.138 161.626 99.9236 162.813 97.2213C171.672 77.0712 179.854 56.6534 188.814 36.546C191.308 30.9479 192.693 23.0724 200.481 22.6191C212.422 21.9248 225.096 22.6192 237.146 22.6191C244.474 22.6191 252.041 22.17 256.836 28.0248Z" fill="white"/>
<path d="M33.5422 33.6396H2.10945C1.22058 33.6396 0.5 34.3597 0.5 35.248C0.5 36.1363 1.22058 36.8564 2.10945 36.8564H33.5422C34.4311 36.8564 35.1516 36.1363 35.1516 35.248C35.1516 34.3597 34.4311 33.6396 33.5422 33.6396Z" fill="white"/>
<path d="M41.1162 50.293H2.10945C1.22058 50.293 0.5 51.013 0.5 51.9013C0.5 52.7897 1.22058 53.51 2.10945 53.51H41.1162C42.0051 53.51 42.7257 52.7897 42.7257 51.9013C42.7257 51.013 42.0051 50.293 41.1162 50.293Z" fill="white"/>
<path d="M47.9333 66.375H24.6427C23.7538 66.375 23.0332 67.0951 23.0332 67.9834C23.0332 68.8717 23.7538 69.5918 24.6427 69.5918H47.9333C48.8222 69.5918 49.5427 68.8717 49.5427 67.9834C49.5427 67.0951 48.8222 66.375 47.9333 66.375Z" fill="#733ABF"/>
<path d="M40.7379 77.9189H2.86727C1.97839 77.9189 1.25781 78.639 1.25781 79.5273C1.25781 80.4156 1.97839 81.1357 2.86727 81.1357H40.7379C41.6269 81.1357 42.3474 80.4156 42.3474 79.5273C42.3474 78.639 41.6269 77.9189 40.7379 77.9189Z" fill="#733ABF"/>
<path d="M57.0208 93.8135H7.41021C6.52133 93.8135 5.80078 94.5338 5.80078 95.4221C5.80078 96.3104 6.52133 97.0305 7.41021 97.0305H57.0208C57.9097 97.0305 58.6303 96.3104 58.6303 95.4221C58.6303 94.5338 57.9097 93.8135 57.0208 93.8135Z" fill="#733ABF"/>
<path d="M27.8617 16.9863H2.10945C1.22058 16.9863 0.5 17.7065 0.5 18.5948C0.5 19.4831 1.22058 20.2032 2.10945 20.2032H27.8617C28.7503 20.2032 29.4711 19.4831 29.4711 18.5948C29.4711 17.7065 28.7503 16.9863 27.8617 16.9863Z" fill="white"/>
<path d="M342.955 24.8223C352.26 24.8223 360.249 28.1819 366.92 34.9012C373.672 41.5375 377.049 49.5012 377.049 58.792C376.967 68.1658 373.631 76.2124 367.042 82.9316C360.453 89.5681 352.507 92.8863 343.202 92.8863H318.248C316.519 92.8863 315.038 93.5084 313.801 94.7526C312.648 95.9141 312.072 97.3658 312.072 99.1078V104.956C312.072 106.698 311.455 108.191 310.218 109.436C308.984 110.597 307.543 111.178 305.896 111.178H297.371C295.642 111.178 294.161 110.597 292.924 109.436C291.772 108.191 291.195 106.698 291.195 104.956V31.0438C291.195 29.3018 291.772 27.8501 292.924 26.6887C294.161 25.4444 295.642 24.8223 297.371 24.8223H342.955ZM343.078 71.8573C346.701 71.8573 349.748 70.613 352.219 68.1244C354.772 65.5528 356.09 62.4835 356.172 58.9164C356.172 55.2665 354.897 52.1556 352.342 49.584C349.789 47.0124 346.742 45.7266 343.202 45.7266H318.248C316.519 45.7266 315.038 46.3489 313.801 47.5931C312.648 48.8376 312.072 50.2893 312.072 51.9483V65.6358C312.072 67.2948 312.648 68.7465 313.801 69.9907C315.038 71.2352 316.519 71.8573 318.248 71.8573H343.078Z" fill="white"/>
<path d="M459.158 100.026C450.387 108.798 439.752 113.184 427.255 113.184C414.76 113.184 404.085 108.798 395.229 100.026C386.457 91.1706 382.07 80.4948 382.07 67.9984C382.07 55.5019 386.457 44.8676 395.229 36.0952C404.085 27.24 414.76 22.8125 427.255 22.8125C439.752 22.8125 450.387 27.24 459.158 36.0952C468.014 44.8676 472.442 55.5019 472.442 67.9984C472.442 80.4948 468.014 91.1706 459.158 100.026ZM427.255 43.7916C420.636 43.7916 414.924 46.1503 410.125 50.8675C405.407 55.5847 403.05 61.295 403.05 67.9984C403.05 74.7019 405.407 80.412 410.125 85.1294C414.924 89.8466 420.636 92.2051 427.255 92.2051C433.959 92.2051 439.67 89.8466 444.386 85.1294C449.103 80.412 451.463 74.7019 451.463 67.9984C451.463 61.295 449.103 55.5847 444.386 50.8675C439.67 46.1503 433.959 43.7916 427.255 43.7916Z" fill="white"/>
<path d="M554.551 100.026C545.779 108.798 535.144 113.184 522.647 113.184C510.149 113.184 499.474 108.798 490.62 100.026C481.846 91.1706 477.461 80.4948 477.461 67.9984C477.461 55.5019 481.846 44.8676 490.62 36.0952C499.474 27.24 510.149 22.8125 522.647 22.8125C535.144 22.8125 545.779 27.24 554.551 36.0952C563.405 44.8676 567.833 55.5019 567.833 67.9984C567.833 80.4948 563.405 91.1706 554.551 100.026ZM522.647 43.7916C516.025 43.7916 510.316 46.1503 505.516 50.8675C500.798 55.5847 498.441 61.295 498.441 67.9984C498.441 74.7019 500.798 80.412 505.516 85.1294C510.316 89.8466 516.025 92.2051 522.647 92.2051C529.351 92.2051 535.06 89.8466 539.778 85.1294C544.495 80.412 546.853 74.7019 546.853 67.9984C546.853 61.295 544.495 55.5847 539.778 50.8675C535.06 46.1503 529.351 43.7916 522.647 43.7916Z" fill="white"/>
<path d="M648.164 104.956C648.164 106.698 647.548 108.191 646.312 109.436C645.16 110.597 643.72 111.178 641.992 111.178H579.029C577.383 111.178 575.943 110.597 574.707 109.436C573.473 108.191 572.854 106.698 572.854 104.956V31.0438C572.854 29.3018 573.473 27.8501 574.707 26.6887C575.943 25.4444 577.383 24.8223 579.029 24.8223H587.546C589.274 24.8223 590.716 25.4444 591.868 26.6887C593.102 27.8501 593.719 29.3018 593.719 31.0438V83.9271C593.719 85.6691 594.338 87.1624 595.571 88.4066C596.805 89.5681 598.247 90.1488 599.893 90.1488H641.992C643.72 90.1488 645.16 90.7709 646.312 92.0151C647.548 93.2595 648.164 94.7112 648.164 96.3702V104.956Z" fill="white"/>
<path d="M729.331 87.043C728.425 95.633 724.388 102.158 717.217 106.618C710.131 110.996 701.641 113.184 691.752 113.184C689.691 113.184 688.167 113.143 687.177 113.06C670.531 111.822 659.198 105.503 653.181 94.1049C652.275 92.3705 652.234 90.5947 653.058 88.7777C653.883 86.9604 655.243 85.7628 657.139 85.1848L665.667 82.9546C668.387 82.1288 670.613 82.9546 672.343 85.4324C675.063 89.3145 680.501 91.5445 688.662 92.1227C691.38 92.3705 694.141 92.3291 696.943 91.9987C699.745 91.6683 702.301 90.9251 704.608 89.7687C706.997 88.5299 708.276 86.9192 708.441 84.937C708.441 82.9546 707.451 81.6332 705.474 80.9723C703.496 80.3115 698.015 79.4857 689.032 78.4945C672.468 77.7511 661.301 74.0756 655.531 67.4682C651.328 62.5951 649.598 56.4418 650.338 49.0083C650.999 42.6484 653.472 37.3624 657.756 33.1501C662.125 28.9377 667.275 26.0882 673.208 24.6015C679.143 23.0322 685.528 22.4953 692.37 22.9909C709.182 24.2298 720.514 30.5483 726.366 41.9464C727.272 43.6808 727.313 45.4566 726.488 47.2737C725.748 49.0909 724.429 50.2471 722.533 50.7427L714.002 53.0967C711.118 53.7573 708.852 52.8901 707.204 50.4949C704.731 46.6131 699.293 44.383 690.887 43.8048C686.353 43.4744 681.986 43.9286 677.783 45.1676C673.58 46.3238 671.355 48.3063 671.108 51.1143C670.942 53.1793 671.56 54.5008 672.961 55.079C674.362 55.5746 678.483 56.194 685.324 56.9374C687.549 57.1852 689.32 57.3916 690.639 57.5568V57.6806C707.04 58.2588 718.207 61.9343 724.14 68.7072C728.343 73.5802 730.074 79.6921 729.331 87.043Z" fill="white"/>
</svg>
